# xmcd
#
# Track frame offsets: 
#        150
#        11793
#        25956
#        38161
#        50492
#        67472
#        80136
#        88330
#        99717
#        114244
#        134668
#        145230
#
# Disc length: 2123 seconds
#
# Revision: 1
# Processed by: cddbd v1.5.2PL0 Copyright (c) Steve Scherf et al.
# Submitted via: ExactAudioCopyFreeDBPlugin 1.0
#
DISCID=b508490c
DTITLE=Barrence Whitfield - Dig Thy Savage Soul
DYEAR=2013
DGENRE=Rhythm and Blues
TTITLE0=The Corner Man
TTITLE1=My Baby Didn't Come Home
TTITLE2=Oscar Levant
TTITLE3=Bread
TTITLE4=Hangman's Token
TTITLE5=Daddy's Gone to Bed
TTITLE6=Blackjack
TTITLE7=Hey Hey Little Girl
TTITLE8=I'm Sad About It
TTITLE9=Show Me Baby
TTITLE10=Sugar
TTITLE11=Turn Your Damper Down
EXTD=
EXTT0=
EXTT1=
EXTT2=
EXTT3=
EXTT4=
EXTT5=
EXTT6=
EXTT7=
EXTT8=
EXTT9=
EXTT10=
EXTT11=
PLAYORDER=
